<svg width="19" height="22" viewBox="0 0 19 22" fill="none" xmlns="http://www.w3.org/2000/svg">
<path fill-rule="evenodd" clip-rule="evenodd" d="M11.2932 19.1094C10.7752 19.6864 10.1102 20.0034 9.42017 20.0034H9.41917C8.72617 20.0034 8.05817 19.6864 7.53917 19.1084C7.40604 18.9606 7.21961 18.8716 7.02092 18.8612C6.82222 18.8508 6.62753 18.9198 6.47967 19.0529C6.33182 19.1861 6.2429 19.3725 6.23249 19.5712C6.22209 19.7699 6.29104 19.9646 6.42417 20.1124C7.23217 21.0094 8.29417 21.5034 9.41917 21.5034H9.42117C10.5412 21.5024 11.6032 21.0084 12.4082 20.1114C12.474 20.0382 12.5247 19.9528 12.5575 19.8599C12.5902 19.7671 12.6044 19.6688 12.5991 19.5705C12.5939 19.4722 12.5693 19.3759 12.5269 19.2871C12.4844 19.1983 12.4249 19.1187 12.3517 19.0529C12.2785 18.9871 12.193 18.9364 12.1002 18.9036C12.0074 18.8709 11.909 18.8567 11.8107 18.8619C11.7124 18.8672 11.6161 18.8917 11.5273 18.9342C11.4385 18.9767 11.359 19.0362 11.2932 19.1094ZM9.37017 0.00341797C4.92517 0.00341797 1.93917 3.46542 1.93917 6.69842C1.93917 8.36142 1.51617 9.06642 1.06717 9.81442C0.623175 10.5524 0.120174 11.3904 0.120174 12.9744C0.469175 17.0214 4.69417 17.3514 9.37017 17.3514C14.0462 17.3514 18.2722 17.0214 18.6172 13.0384C18.6202 11.3904 18.1172 10.5524 17.6732 9.81442L17.5162 9.55042C17.1302 8.88742 16.8012 8.16542 16.8012 6.69842C16.8012 3.46542 13.8152 0.00341797 9.37017 0.00341797ZM9.37017 1.50342C12.8652 1.50342 15.3002 4.24142 15.3002 6.69842C15.3002 8.77742 15.8782 9.73842 16.3882 10.5864C16.7972 11.2674 17.1202 11.8054 17.1202 12.9744C16.9532 14.8604 15.7082 15.8514 9.37017 15.8514C3.06717 15.8514 1.78317 14.8164 1.61717 12.9094C1.62017 11.8054 1.94317 11.2674 2.35217 10.5864C2.86217 9.73842 3.43917 8.77742 3.43917 6.69842C3.43917 4.24142 5.87517 1.50342 9.36917 1.50342H9.37017Z" fill="#1E1E2D"/>
</svg>
