<svg width="809" height="185" viewBox="0 0 809 185" fill="none" xmlns="http://www.w3.org/2000/svg">
<rect y="0.232056" width="809" height="184.27" rx="18" fill="#55C960"/>
<mask id="mask0_18_5455" style="mask-type:alpha" maskUnits="userSpaceOnUse" x="0" y="0" width="809" height="185">
<rect y="0.232178" width="809" height="184.27" rx="18" fill="#045AFC"/>
</mask>
<g mask="url(#mask0_18_5455)">
<g opacity="0.1">
<path d="M525.315 100.811C531.918 98.8646 538.869 99.8572 544.251 103.515L595.613 138.421C602.55 143.135 605.802 151.518 603.966 159.954L593.97 205.866C592.133 214.301 585.537 221.278 577.028 223.787L514.023 242.359C507.42 244.306 500.469 243.313 495.087 239.655L443.725 204.75C436.788 200.036 433.536 191.652 435.372 183.217L445.368 137.304C447.205 128.869 453.801 121.892 462.31 119.384L525.315 100.811Z" stroke="white" stroke-width="4"/>
<path d="M652.189 118.93C658.793 116.983 665.743 117.976 671.126 121.634L722.488 156.539C729.425 161.254 732.677 169.637 730.84 178.072L720.845 223.985C719.008 232.42 712.412 239.397 703.903 241.906L640.898 260.478C634.295 262.425 627.344 261.432 621.961 257.774L570.6 222.869C563.663 218.154 560.411 209.771 562.247 201.336L572.243 155.423C574.079 146.988 580.675 140.011 589.185 137.502L652.189 118.93Z" stroke="white" stroke-width="4"/>
<path d="M550.444 -14.6144C557.047 -16.5609 563.998 -15.5683 569.381 -11.9101L620.743 22.995C627.68 27.7094 630.932 36.0928 629.095 44.5281L619.1 90.4406C617.263 98.8758 610.667 105.853 602.158 108.361L539.153 126.934C532.55 128.88 525.599 127.888 520.216 124.23L468.854 89.3245C461.917 84.6102 458.666 76.2267 460.502 67.7915L470.498 21.879C472.334 13.4438 478.93 6.46665 487.44 3.95819L550.444 -14.6144Z" stroke="white" stroke-width="4"/>
<path d="M677.319 3.50429C683.922 1.5578 690.873 2.55044 696.256 6.20864L747.618 41.1137C754.555 45.8281 757.806 54.2116 755.97 62.6468L745.974 108.559C744.138 116.994 737.542 123.972 729.032 126.48L666.028 145.053C659.425 146.999 652.474 146.007 647.091 142.348L595.729 107.443C588.792 102.729 585.54 94.3454 587.377 85.9102L597.373 39.9977C599.209 31.5625 605.805 24.5854 614.315 22.0769L677.319 3.50429Z" stroke="white" stroke-width="4"/>
<path d="M773.85 136.304C780.453 134.358 787.404 135.35 792.787 139.008L844.149 173.914C851.086 178.628 854.338 187.011 852.501 195.447L842.506 241.359C840.669 249.794 834.073 256.771 825.564 259.28L762.559 277.852C755.956 279.799 749.005 278.806 743.622 275.148L692.26 240.243C685.323 235.529 682.072 227.145 683.908 218.71L693.904 172.797C695.74 164.362 702.336 157.385 710.846 154.877L773.85 136.304Z" stroke="white" stroke-width="4"/>
<path d="M900.725 154.423C907.328 152.476 914.279 153.469 919.662 157.127L971.023 192.032C977.96 196.747 981.212 205.13 979.376 213.565L969.38 259.478C967.544 267.913 960.948 274.89 952.438 277.399L889.434 295.971C882.83 297.918 875.88 296.925 870.497 293.267L819.135 258.362C812.198 253.647 808.946 245.264 810.783 236.829L820.778 190.916C822.615 182.481 829.211 175.504 837.72 172.995L900.725 154.423Z" stroke="white" stroke-width="4"/>
<path d="M798.98 20.8786C805.583 18.9321 812.534 19.9248 817.917 23.583L869.278 58.4881C876.215 63.2024 879.467 71.5859 877.631 80.0211L867.635 125.934C865.799 134.369 859.202 141.346 850.693 143.854L787.688 162.427C781.085 164.373 774.135 163.381 768.752 159.723L717.39 124.818C710.453 120.103 707.201 111.72 709.037 103.285L719.033 57.372C720.87 48.9368 727.466 41.9597 735.975 39.4512L798.98 20.8786Z" stroke="white" stroke-width="4"/>
<path d="M21.2639 28.828C27.867 26.8815 34.8178 27.8742 40.2007 31.5324L91.5625 66.4375C98.4995 71.1518 101.751 79.5353 99.9149 87.9705L89.9191 133.883C88.0827 142.318 81.4867 149.295 72.9772 151.804L9.97264 170.376C3.3695 172.323 -3.58129 171.33 -8.96422 167.672L-60.326 132.767C-67.263 128.053 -70.5148 119.669 -68.6784 111.234L-58.6827 65.3214C-56.8462 56.8862 -50.2502 49.9091 -41.7407 47.4006L21.2639 28.828Z" stroke="white" stroke-width="4"/>
<path d="M148.138 46.9468C154.742 45.0003 161.692 45.9929 167.075 49.6511L218.437 84.5562C225.374 89.2706 228.626 97.6541 226.789 106.089L216.794 152.002C214.957 160.437 208.361 167.414 199.852 169.923L136.847 188.495C130.244 190.442 123.293 189.449 117.91 185.791L66.5485 150.886C59.6115 146.171 56.3597 137.788 58.1961 129.353L68.1919 83.4402C70.0283 75.005 76.6243 68.0279 85.1338 65.5194L148.138 46.9468Z" stroke="white" stroke-width="4"/>
<path d="M46.3933 -86.5975C52.9964 -88.544 59.9472 -87.5514 65.3301 -83.8932L116.692 -48.9881C123.629 -44.2737 126.881 -35.8902 125.044 -27.455L115.049 18.4575C113.212 26.8927 106.616 33.8698 98.1066 36.3782L35.102 54.9509C28.4989 56.8973 21.5481 55.9047 16.1652 52.2465L-35.1966 17.3414C-42.1336 12.6271 -45.3854 4.24359 -43.549 -4.19163L-33.5533 -50.1041C-31.7168 -58.5393 -25.1208 -65.5164 -16.6113 -68.0249L46.3933 -86.5975Z" stroke="white" stroke-width="4"/>
<path d="M173.268 -68.4787C179.871 -70.4252 186.822 -69.4326 192.205 -65.7744L243.567 -30.8693C250.504 -26.1549 253.755 -17.7715 251.919 -9.33626L241.923 36.5762C240.087 45.0115 233.491 51.9886 224.981 54.497L161.977 73.0696C155.374 75.0161 148.423 74.0235 143.04 70.3653L91.6782 35.4602C84.7412 30.7458 81.4893 22.3624 83.3258 13.9271L93.3215 -31.9853C95.1579 -40.4206 101.754 -47.3977 110.263 -49.9061L173.268 -68.4787Z" stroke="white" stroke-width="4"/>
<path d="M269.799 64.3211C276.402 62.3746 283.353 63.3672 288.736 67.0254L340.098 101.931C347.035 106.645 350.287 115.028 348.45 123.464L338.455 169.376C336.618 177.811 330.022 184.788 321.513 187.297L258.508 205.869C251.905 207.816 244.954 206.823 239.571 203.165L188.209 168.26C181.272 163.546 178.021 155.162 179.857 146.727L189.853 100.814C191.689 92.3792 198.285 85.4021 206.795 82.8937L269.799 64.3211Z" stroke="white" stroke-width="4"/>
<path d="M396.674 82.4398C403.277 80.4934 410.228 81.486 415.611 85.1442L466.972 120.049C473.909 124.764 477.161 133.147 475.325 141.582L465.329 187.495C463.493 195.93 456.897 202.907 448.387 205.416L385.383 223.988C378.779 225.935 371.829 224.942 366.446 221.284L315.084 186.379C308.147 181.664 304.895 173.281 306.732 164.846L316.727 118.933C318.564 110.498 325.16 103.521 333.669 101.012L396.674 82.4398Z" stroke="white" stroke-width="4"/>
<path d="M294.929 -51.1044C301.532 -53.0509 308.483 -52.0583 313.866 -48.4001L365.227 -13.495C372.164 -8.78062 375.416 -0.397144 373.58 8.03807L363.584 53.9506C361.747 62.3858 355.151 69.3629 346.642 71.8713L283.637 90.444C277.034 92.3905 270.084 91.3978 264.701 87.7396L213.339 52.8345C206.402 48.1202 203.15 39.7367 204.986 31.3015L214.982 -14.611C216.819 -23.0462 223.415 -30.0233 231.924 -32.5318L294.929 -51.1044Z" stroke="white" stroke-width="4"/>
<path d="M421.803 -32.9857C428.407 -34.9322 435.357 -33.9396 440.74 -30.2813L492.102 4.62375C499.039 9.3381 502.291 17.7216 500.454 26.1568L490.459 72.0693C488.622 80.5045 482.026 87.4816 473.517 89.9901L410.512 108.563C403.909 110.509 396.958 109.517 391.575 105.858L340.214 70.9532C333.277 66.2389 330.025 57.8554 331.861 49.4202L341.857 3.5077C343.693 -4.92752 350.289 -11.9046 358.799 -14.4131L421.803 -32.9857Z" stroke="white" stroke-width="4"/>
</g>
</g>
</svg>
